<svg width="318" height="180" xmlns="http://www.w3.org/2000/svg">

 <g>
  <title>background</title>
  <rect fill="none" id="canvas_background" height="182" width="320" y="-1" x="-1"/>
 </g>
 <g>
  <title>Layer 1</title>
  <path stroke="null" fill="#c6c6c6" id="video" d="m199.964218,35.461393l-82.595106,0c-11.356827,0 -20.648777,9.291949 -20.648777,20.648777l0,61.94633c0,11.356827 9.291949,20.648777 20.648777,20.648777l82.595106,0c11.356827,0 20.648777,-9.291949 20.648777,-20.648777l0,-61.94633c0,-11.356827 -9.291949,-20.648777 -20.648777,-20.648777zm-22.713654,55.751697l-26.32719,16.519021c-3.097316,2.581097 -7.743291,0 -7.743291,-4.129755l0,-33.038042c0,-4.129755 4.645975,-6.710852 7.743291,-4.129755l26.32719,16.519021c3.613536,1.548658 3.613536,6.710852 0,8.259511z"/>
 </g>
</svg>